# xmcd CD database file
#
# Track frame offsets:
#	150
#	20027
#	39092
#	59975
#	82765
#	110985
#	133897
#	162520
#	186885
#	209922
#
# Disc length: 3216 seconds
#
# Revision: 1
# Processed by: cddbd v1.4PL0 Copyright (c) Steve Scherf et al.
# Submitted via: CDex 1.50beta8
#
DISCID=9a0c8e0a
DTITLE=James Ingram - Always You
DYEAR=1993
DGENRE=Soul
TTITLE0=Someone Like You
TTITLE1=Let Me Love You This Way
TTITLE2=Always You
TTITLE3=Treat Her Right
TTITLE4=A Baby Born
TTITLE5=This Is The Night
TTITLE6=You Never Know What You Got
TTITLE7=Too Much For This Heart
TTITLE8=Sing For The Children
TTITLE9=Any Kind Of Love
EXTD=YEAR: 1993
EXTT0=
EXTT1=
EXTT2=
EXTT3=
EXTT4=
EXTT5=
EXTT6=
EXTT7=
EXTT8=
EXTT9=
PLAYORDER=
